<svg width="187" height="93" viewBox="0 0 187 93" fill="none" xmlns="http://www.w3.org/2000/svg">
<path d="M108.327 64.0708H110.824V26.4384L92.9012 55.7809L95.0353 57.0705L92.9581 55.6928L93.8957 56.3143L93.3688 55.3355C93.161 55.4439 93.0101 55.6101 92.9581 55.6928L93.8957 56.3143L93.3688 55.3355L93.8982 56.3185V55.193C93.7976 55.1908 93.5749 55.2234 93.3688 55.3355L93.8982 56.3185V55.193H93.777V56.1086L94.181 55.3035C93.9831 55.2042 93.8132 55.1914 93.777 55.193V56.1086L94.181 55.3035L93.6582 56.3425L94.6379 55.697C94.5645 55.5784 94.3798 55.398 94.181 55.3035L93.6582 56.3425L94.6379 55.697L92.5565 57.0705L94.6997 55.7943L76.9718 26.3212V64.0708H78.4455L77.1384 63.438C76.9718 63.7889 76.974 64.0195 76.9718 64.0708H78.4455L77.1384 63.438L78.8948 64.2886L77.7449 62.7203C77.4978 62.8934 77.2591 63.1801 77.1384 63.438L78.8948 64.2886L77.7449 62.7203L78.8191 64.1845L78.2241 62.4689C78.1014 62.5105 77.9285 62.5874 77.7449 62.7203L78.8191 64.1845L78.2241 62.4689L78.6774 63.777L78.4268 62.4144C78.3843 62.4224 78.3172 62.4368 78.2241 62.4689L78.6774 63.777L78.4268 62.4144L78.5573 63.1266L78.4818 62.4064L78.4268 62.4144L78.5573 63.1266L78.4818 62.4064L78.4916 62.4907L78.4842 62.4064H78.4818L78.4916 62.4907L78.4842 62.4064C78.4771 62.407 78.3962 62.4112 78.2699 62.4105C78.1771 62.4105 78.0605 62.409 77.9252 62.409H76.6648V64.8935H79.1622V28.6282H76.6648V31.1124H78.1685V30.0632L77.702 30.9917C77.8973 31.091 78.0911 31.1144 78.1685 31.1124V30.0632L77.702 30.9917L78.2152 29.9706L77.2756 30.6386C77.3406 30.7366 77.5049 30.8969 77.702 30.9917L78.2152 29.9706L77.2756 30.6386L79.3071 29.1943L77.1483 30.4431L93.8438 58.9952L110.682 30.5767L108.529 29.3157L110.63 30.6594L109.945 30.2218L110.4 30.8795C110.565 30.7632 110.613 30.6825 110.63 30.6594L109.945 30.2218L110.4 30.8795L109.654 29.7982L110.067 31.0419C110.203 30.9971 110.316 30.9362 110.4 30.8795L109.654 29.7982L110.067 31.0419L109.627 29.7178V31.1124C109.771 31.1127 109.93 31.0865 110.067 31.0419L109.627 29.7178V31.1124H111.091V28.6282H108.593V64.8935H111.091V62.409H109.546C109.36 62.409 109.213 62.4128 109.128 62.4128L109.069 62.4112H109.052L108.98 63.8657L109.443 62.4945C109.169 62.407 109.056 62.4144 109.052 62.4112L108.98 63.8657L109.443 62.4945L108.776 64.4648L110.189 62.9351C109.937 62.7037 109.642 62.5586 109.443 62.4945L108.776 64.4648L110.189 62.9351L108.761 64.4815L110.623 63.4934C110.529 63.3146 110.378 63.1074 110.189 62.9351L108.761 64.4815L110.623 63.4934L109.079 64.3126L110.816 64.0429C110.801 63.9564 110.768 63.7657 110.623 63.4934L109.079 64.3126L110.816 64.0429L110.074 64.1583L110.825 64.1118L110.816 64.0429L110.074 64.1583L110.825 64.1118V64.1038L110.824 64.0708H108.327H105.829C105.832 64.3729 105.84 64.6897 105.946 65.1264C106.026 65.4477 106.183 65.8595 106.496 66.2558C106.725 66.5531 107.04 66.8123 107.347 66.9808C107.813 67.2371 108.21 67.3082 108.487 67.3461C108.769 67.3813 108.963 67.3793 109.128 67.3813C109.286 67.3803 109.418 67.3771 109.546 67.3771H113.588V26.1442H109.627C109.239 26.1439 108.852 26.2084 108.503 26.3234C107.975 26.496 107.542 26.7732 107.208 27.0654C106.873 27.3598 106.625 27.6703 106.429 27.9718L106.403 28.0128L93.8718 49.1628L81.4064 27.8446L81.3391 27.75C81.0015 27.2752 80.5125 26.8315 79.9359 26.5483C79.3613 26.2606 78.7328 26.142 78.1685 26.1442H74.1667V67.3771H77.9252C78.029 67.3771 78.1427 67.378 78.2699 67.378C78.4818 67.3771 78.7273 67.378 79.0501 67.3419C79.2927 67.314 79.5858 67.265 79.9385 67.1346C80.201 67.0359 80.499 66.8863 80.7834 66.6617C81.2157 66.3301 81.5726 65.8227 81.745 65.3484C81.9237 64.8701 81.9656 64.4434 81.9662 64.0708V44.3019L90.4438 58.3952L90.476 58.4442C90.8199 58.9671 91.3419 59.4509 91.9471 59.7472C92.5516 60.049 93.1973 60.1631 93.777 60.1605H93.8982C94.4853 60.1638 95.1425 60.0292 95.728 59.7152C96.3152 59.4053 96.791 58.936 97.1142 58.4481L97.1439 58.4048L105.829 44.1846V64.0708H108.327" fill="#E56B6F"/>
<path d="M143.445 30.8923V28.4084C141.049 28.4071 138.76 28.8399 136.658 29.7274C134.556 30.6117 132.654 31.9445 130.997 33.6563L130.99 33.6643C129.334 35.3857 128.053 37.3429 127.201 39.4898C126.347 41.636 125.922 43.9601 125.908 46.402L125.909 46.3601L125.908 46.4001V46.5359C125.907 48.9455 126.322 51.2491 127.17 53.3844C128.016 55.5192 129.292 57.4735 130.942 59.2026C132.604 60.9502 134.5 62.3183 136.596 63.2356C138.689 64.1541 140.968 64.6154 143.348 64.6282H143.355H143.445C145.779 64.6308 148.022 64.1823 150.083 63.2746C152.148 62.3705 154.018 61.0153 155.665 59.2843C157.314 57.5542 158.593 55.6009 159.451 53.4661C160.312 51.3324 160.751 49.0266 160.78 46.6109V46.5965V46.5792C160.781 44.1475 160.367 41.8266 159.52 39.6795C158.675 37.5313 157.399 35.568 155.747 33.8341L155.756 33.844L155.762 33.8504C154.128 32.1014 152.264 30.7302 150.2 29.8091C148.138 28.8858 145.889 28.4222 143.543 28.4084H143.537H143.445V30.8923V33.3766H143.527H143.518H143.509C145.23 33.3894 146.747 33.7146 148.153 34.3409C149.558 34.9692 150.863 35.9095 152.104 37.2333L152.111 37.2407L152.119 37.2497C153.366 38.5617 154.265 39.9607 154.87 41.4918C155.472 43.0236 155.784 44.6989 155.785 46.5792H158.282L155.785 46.5475C155.76 48.4163 155.431 50.087 154.815 51.6182C154.197 53.1489 153.289 54.5523 152.038 55.8674C150.785 57.1826 149.471 58.1127 148.066 58.7293C146.66 59.3451 145.15 59.6584 143.445 59.6598H143.364H143.372H143.38C141.614 59.6473 140.052 59.3195 138.61 58.6883C137.168 58.0566 135.832 57.112 134.568 55.7866C133.319 54.4731 132.419 53.0785 131.816 51.5598C131.213 50.0413 130.903 48.3874 130.902 46.5359L130.903 46.4341V46.4322C130.916 44.5352 131.236 42.8503 131.846 41.3172C132.456 39.7852 133.357 38.3934 134.602 37.0963L134.597 37.101L134.594 37.1039C135.837 35.824 137.159 34.9128 138.607 34.3018C140.055 33.6925 141.642 33.3776 143.445 33.3766V30.8923ZM143.364 64.8935L143.377 62.409C141.185 62.3961 139.239 61.9979 137.458 61.2315C135.679 60.4611 134.052 59.3172 132.535 57.7266C131.031 56.1471 129.94 54.4481 129.207 52.5876C128.476 50.7252 128.1 48.6892 128.099 46.4174H125.601L128.099 46.4433C128.123 44.1408 128.521 42.0881 129.271 40.2257C130.023 38.3637 131.126 36.6807 132.638 35.1275C134.152 33.5768 135.774 32.4619 137.548 31.7151C139.323 30.9705 141.262 30.588 143.445 30.587H143.527H143.518H143.513C145.675 30.6001 147.594 30.9974 149.353 31.7628C151.111 32.5305 152.722 33.6729 154.227 35.2623L154.226 35.2617C155.718 36.8418 156.801 38.5402 157.529 40.4029C158.255 42.2659 158.629 44.3045 158.63 46.5792H161.128L158.63 46.5522C158.605 48.8286 158.21 50.8615 157.467 52.7116C156.722 54.5609 155.626 56.24 154.124 57.7945L154.118 57.8019L154.112 57.8083C152.608 59.3852 151 60.5145 149.251 61.27C147.501 62.0229 145.594 62.409 143.445 62.409H143.364H143.371H143.377L143.364 64.8935V67.3771H143.445C146.202 67.3794 148.827 66.8687 151.236 65.8291C153.647 64.7916 155.827 63.2329 157.737 61.2242L157.729 61.2332L157.725 61.2386C159.638 59.2618 161.116 57.0185 162.105 54.5564C163.096 52.0949 163.596 49.4245 163.625 46.6055V46.591V46.5792C163.626 43.7595 163.154 41.0811 162.186 38.6052C161.221 36.1284 159.763 33.8648 157.866 31.8596L157.865 31.8593C155.955 29.8373 153.774 28.2646 151.358 27.2125C148.944 26.1584 146.311 25.6326 143.541 25.6188H143.535H143.445C140.669 25.6172 138.029 26.118 135.603 27.1387C133.177 28.1572 130.978 29.6906 129.051 31.6702C127.121 33.6489 125.631 35.9008 124.635 38.378C123.636 40.8553 123.132 43.5465 123.103 46.3908V46.4085V46.4174C123.102 49.2396 123.58 51.9203 124.555 54.3978C125.529 56.8766 126.999 59.1401 128.909 61.1441C130.834 63.1667 133.034 64.7378 135.469 65.788C137.903 66.8405 140.557 67.3643 143.351 67.3771H143.357H143.364V64.8935" fill="#E56B6F"/>
<path d="M45.2544 46.7006L47.2425 48.2032L47.3047 48.1222L47.3118 48.1119L63.8075 26.1442H56.047C55.7523 26.1442 55.4399 26.1747 55.1193 26.2523C54.64 26.3647 54.1443 26.595 53.7342 26.9237C53.3203 27.2503 53.004 27.6594 52.7866 28.0659L54.9904 29.235L52.9907 27.7462L41.6097 42.8673L43.6084 44.3554L41.6541 42.8096L41.6361 42.832L43.5907 44.3779L45.5685 42.8609L45.5621 42.8522L34.1913 27.7462L32.1919 29.235L34.3942 28.064C34.1101 27.5241 33.6292 26.9766 33.0133 26.629C32.7085 26.4535 32.3825 26.3281 32.0627 26.2523C31.7426 26.1747 31.4301 26.1442 31.135 26.1442H23.3745L39.8692 48.1119L39.9321 48.1952L41.9276 46.7006L39.9321 45.206L39.8712 45.2868L39.8692 45.2893L23.3745 67.257H31.135C31.4301 67.257 31.7426 67.2256 32.0627 67.149C32.542 67.036 33.0381 66.8052 33.4478 66.4768C33.8611 66.1501 34.1777 65.7425 34.3942 65.3373L32.1919 64.1662L34.1913 65.6544L45.5621 50.5484L45.5685 50.5404L43.5907 49.0234L41.6361 50.5682L41.6541 50.5916L43.6084 49.0449L41.6097 50.534L52.9907 65.6544L54.9904 64.1662L52.7866 65.3347C53.0706 65.8771 53.5532 66.4249 54.1691 66.7726C54.4735 66.9472 54.8005 67.0728 55.1193 67.149C55.4399 67.2256 55.7523 67.257 56.047 67.257H63.8075L47.3106 45.2858L47.2425 45.1971L45.2544 46.7006L47.2425 48.2032L45.2544 46.7006L43.2654 48.2032L43.3275 48.284L43.3211 48.2759L56.8243 66.259L58.8253 64.7734V62.2888H56.047V63.3349L56.2934 62.3199C56.1839 62.2936 56.0976 62.2888 56.047 62.2888V63.3349L56.2934 62.3199L55.9568 63.7055L56.8491 62.5932C56.6768 62.4544 56.4577 62.3577 56.2934 62.3199L55.9568 63.7055L56.8491 62.5932L56.0303 63.6142L57.1938 62.9975C57.14 62.8934 57.024 62.7309 56.8491 62.5932L56.0303 63.6142L57.1938 62.9975L57.1035 62.8293L45.5863 47.5282L45.5459 47.4769L43.5601 44.9939L41.5845 47.5426L30.0788 62.8277L29.9892 62.9943L31.1924 63.6341L30.5165 62.4689C30.2524 62.6156 30.0559 62.8591 29.9892 62.9943L31.1924 63.6341L30.5165 62.4689L31.2181 63.6793L30.8879 62.3199C30.7784 62.3455 30.6447 62.3952 30.5165 62.4689L31.2181 63.6793L30.8879 62.3199L31.135 63.3365V62.2888C31.0844 62.2888 30.9981 62.2936 30.8879 62.3199L31.135 63.3365V62.2888H28.3571V64.7734L30.3581 66.259L43.8629 48.2727L43.9218 48.1952L45.0537 46.7006L43.8613 45.125L30.3581 27.1419L28.3571 28.6282V31.1124H31.135V30.0651L30.8879 31.0804C30.9981 31.107 31.0844 31.1124 31.135 31.1124V30.0651L30.8879 31.0804L31.2252 29.6947L30.3333 30.8068C30.5046 30.9458 30.7236 31.0429 30.8879 31.0804L31.2252 29.6947L30.3333 30.8068L31.1488 29.7896L29.9892 30.406C30.043 30.5078 30.1584 30.6697 30.3333 30.8068L31.1488 29.7896L29.9892 30.406L30.0788 30.572L41.5845 45.8574L41.6129 45.8949L43.5601 48.4067L45.5863 45.8731L57.1035 30.5713L57.1938 30.4034L55.9881 29.7639L56.6645 30.9317C56.9286 30.7856 57.1261 30.5409 57.1938 30.4034L55.9881 29.7639L56.6645 30.9317L55.9639 29.7223L56.2934 31.0804C56.4029 31.0547 56.5373 31.0058 56.6645 30.9317L55.9639 29.7223L56.2934 31.0804L56.047 30.0654V31.1124C56.0976 31.1124 56.1839 31.107 56.2934 31.0804L56.047 30.0654V31.1124H58.8253V28.6282L56.8243 27.1419L43.3218 45.1243L43.2654 45.1971L42.117 46.7006L43.2654 48.2032L45.2544 46.7006" fill="#E56B6F"/>
</svg>
