<?xml version="1.0" encoding="UTF-8" standalone="no"?>
<svg
   xmlns:dc="http://purl.org/dc/elements/1.1/"
   xmlns:cc="http://creativecommons.org/ns#"
   xmlns:rdf="http://www.w3.org/1999/02/22-rdf-syntax-ns#"
   xmlns:svg="http://www.w3.org/2000/svg"
   xmlns="http://www.w3.org/2000/svg"
   xmlns:sodipodi="http://sodipodi.sourceforge.net/DTD/sodipodi-0.dtd"
   xmlns:inkscape="http://www.inkscape.org/namespaces/inkscape"
   version="1.1"
   id="svg2"
   xml:space="preserve"
   width="302.35999"
   height="151.18668"
   viewBox="0 0 302.35999 151.18668"
   sodipodi:docname="xmo_logo.eps"><metadata
     id="metadata8"><rdf:RDF><cc:Work
         rdf:about=""><dc:format>image/svg+xml</dc:format><dc:type
           rdf:resource="http://purl.org/dc/dcmitype/StillImage" /></cc:Work></rdf:RDF></metadata><defs
     id="defs6" /><sodipodi:namedview
     pagecolor="#ffffff"
     bordercolor="#666666"
     borderopacity="1"
     objecttolerance="10"
     gridtolerance="10"
     guidetolerance="10"
     inkscape:pageopacity="0"
     inkscape:pageshadow="2"
     inkscape:window-width="640"
     inkscape:window-height="480"
     id="namedview4" /><g
     id="g10"
     inkscape:groupmode="layer"
     inkscape:label="ink_ext_XXXXXX"
     transform="matrix(1.3333333,0,0,-1.3333333,0,151.18667)"><g
       id="g12"
       transform="scale(0.1)"><path
         d="m 1313.65,352.719 h 30.29 v 458.832 l -217.35,-357.758 25.88,-15.723 -25.19,16.797 11.37,-7.578 -6.39,11.934 c -2.52,-1.321 -4.35,-3.348 -4.98,-4.356 l 11.37,-7.578 -6.39,11.934 6.42,-11.985 v 13.723 c -1.22,0.027 -3.92,-0.371 -6.42,-1.738 l 6.42,-11.985 v 13.723 h -1.47 v -11.164 l 4.9,9.816 c -2.4,1.211 -4.46,1.367 -4.9,1.348 v -11.164 l 4.9,9.816 -6.34,-12.668 11.88,7.871 c -0.89,1.446 -3.13,3.645 -5.54,4.797 l -6.34,-12.668 11.88,7.871 -25.24,-16.746 25.99,15.559 L 933.418,812.98 V 352.719 h 17.871 l -15.851,7.715 c -2.02,-4.278 -1.993,-7.09 -2.02,-7.715 h 17.871 l -15.851,7.715 21.3,-10.371 -13.945,19.121 c -2.996,-2.11 -5.891,-5.606 -7.355,-8.75 l 21.3,-10.371 -13.945,19.121 13.027,-17.852 -7.215,20.918 c -1.488,-0.508 -3.585,-1.445 -5.812,-3.066 l 13.027,-17.852 -7.215,20.918 5.497,-15.949 -3.039,16.613 c -0.516,-0.098 -1.329,-0.273 -2.458,-0.664 l 5.497,-15.949 -3.039,16.613 1.582,-8.684 -0.915,8.782 -0.667,-0.098 1.582,-8.684 -0.915,8.782 0.118,-1.028 -0.09,1.028 h -0.028 l 0.118,-1.028 -0.09,1.028 c -0.086,-0.008 -1.067,-0.059 -2.598,-0.051 -1.125,0 -2.539,0.019 -4.18,0.019 h -15.285 v -30.292 h 30.285 v 442.164 h -30.285 v -30.289 h 18.235 v 12.792 l -5.657,-11.32 c 2.368,-1.211 4.719,-1.496 5.657,-1.472 v 12.792 l -5.657,-11.32 6.223,12.449 -11.394,-8.144 c 0.789,-1.195 2.781,-3.149 5.171,-4.305 l 6.223,12.449 -11.394,-8.144 24.636,17.609 -26.179,-15.226 202.461,-348.121 204.19,346.492 -26.1,15.375 25.47,-16.383 -8.3,5.336 5.51,-8.02 c 2.01,1.418 2.59,2.403 2.79,2.684 l -8.3,5.336 5.51,-8.02 -9.04,13.184 5,-15.164 c 1.65,0.547 3.03,1.289 4.04,1.98 l -9.04,13.184 5,-15.164 -5.33,16.144 v -17.003 c 1.74,-0.004 3.67,0.316 5.33,0.859 l -5.33,16.144 v -17.003 h 17.75 v 30.289 h -30.29 V 342.688 h 30.29 v 30.292 h -18.73 c -2.26,0 -4.04,-0.046 -5.07,-0.046 l -0.72,0.019 h -0.2 l -0.88,-17.734 5.62,16.719 c -3.32,1.066 -4.7,0.976 -4.74,1.015 l -0.88,-17.734 5.62,16.719 -8.09,-24.024 17.13,18.652 c -3.05,2.821 -6.63,4.59 -9.04,5.372 l -8.09,-24.024 17.13,18.652 -17.31,-18.855 22.58,12.047 c -1.14,2.18 -2.97,4.707 -5.27,6.808 l -17.31,-18.855 22.58,12.047 -18.73,-9.988 21.07,3.289 c -0.18,1.054 -0.58,3.379 -2.34,6.699 l -18.73,-9.988 21.07,3.289 -9,-1.407 9.11,0.567 -0.11,0.84 -9,-1.407 9.11,0.567 v 0.097 l -0.01,0.403 h -30.29 -30.29 c 0.04,-3.684 0.13,-7.547 1.42,-12.871 0.97,-3.918 2.87,-8.938 6.67,-13.77 2.78,-3.625 6.6,-6.785 10.32,-8.84 5.65,-3.125 10.47,-3.992 13.83,-4.453 3.41,-0.43 5.77,-0.406 7.77,-0.43 1.92,0.012 3.51,0.051 5.07,0.051 h 49.01 v 502.731 h -48.03 c -4.71,0.004 -9.4,-0.782 -13.63,-2.184 -6.4,-2.105 -11.66,-5.484 -15.7,-9.047 -4.07,-3.59 -7.07,-7.375 -9.45,-11.051 l -0.32,-0.5 -151.96,-257.871 -151.165,259.922 -0.816,1.153 c -4.094,5.789 -10.024,11.199 -17.016,14.652 -6.968,3.508 -14.59,4.953 -21.433,4.926 H 899.402 V 312.406 h 45.578 c 1.258,0 2.637,-0.011 4.18,-0.011 2.57,0.011 5.547,0 9.461,0.441 2.942,0.34 6.496,0.937 10.774,2.527 3.183,1.203 6.796,3.028 10.246,5.766 5.242,4.043 9.57,10.23 11.66,16.012 2.168,5.832 2.676,11.035 2.683,15.578 V 593.75 l 102.806,-171.832 0.39,-0.598 c 4.17,-6.375 10.5,-12.273 17.84,-15.886 7.33,-3.68 15.16,-5.071 22.19,-5.039 h 1.47 c 7.12,-0.04 15.09,1.601 22.19,5.429 7.12,3.778 12.89,9.5 16.81,15.449 l 0.36,0.528 105.32,173.379 V 352.719 h 30.29"
         style="fill:#000000;fill-opacity:1;fill-rule:nonzero;stroke:none"
         id="path14" /><path
         d="m 1739.52,757.246 v 30.285 c -29.06,0.016 -56.81,-5.261 -82.3,-16.082 -25.5,-10.781 -48.56,-27.031 -68.66,-47.902 l -0.08,-0.098 c -20.08,-20.988 -35.62,-44.851 -45.95,-71.027 -10.36,-26.168 -15.51,-54.504 -15.68,-84.277 l 0.01,0.511 -0.01,-0.488 v -1.656 c -0.01,-29.379 5.02,-57.465 15.3,-83.5 10.26,-26.028 25.74,-49.856 45.75,-70.938 20.15,-21.308 43.14,-37.988 68.56,-49.172 25.38,-11.199 53.02,-16.824 81.88,-16.98 h 0.09 1.09 c 28.3,-0.031 55.5,5.437 80.5,16.504 25.04,11.023 47.71,27.547 67.69,48.652 20,21.094 35.51,44.91 45.91,70.938 10.44,26.015 15.76,54.129 16.11,83.582 v 0.175 0.211 c 0.02,29.649 -5,57.946 -15.27,84.125 -10.25,26.192 -25.73,50.129 -45.76,71.27 l 0.11,-0.121 0.07,-0.078 c -19.81,21.324 -42.42,38.043 -67.44,49.273 -25.01,11.258 -52.28,16.91 -80.73,17.078 h -0.08 -1.11 v -30.285 -30.289 h 0.99 -0.11 -0.1 c 20.86,-0.156 39.26,-4.121 56.31,-11.758 17.04,-7.66 32.87,-19.125 47.91,-35.265 l 0.09,-0.09 0.1,-0.11 c 15.12,-15.996 26.02,-33.054 33.36,-51.722 7.3,-18.676 11.08,-39.102 11.09,-62.028 h 30.28 l -30.28,0.387 c -0.3,-22.785 -4.29,-43.156 -11.76,-61.824 -7.49,-18.664 -18.5,-35.774 -33.68,-51.809 -15.19,-16.035 -31.12,-27.375 -48.16,-34.894 -17.05,-7.508 -35.36,-11.328 -56.04,-11.344 h -0.98 0.09 0.1 c -21.42,0.152 -40.36,4.148 -57.85,11.844 -17.48,7.703 -33.68,19.219 -49.01,35.379 -15.15,16.015 -26.06,33.019 -33.37,51.535 -7.31,18.515 -11.07,38.68 -11.09,61.254 l 0.01,1.242 v 0.023 c 0.16,23.129 4.04,43.672 11.44,62.364 7.4,18.679 18.33,35.648 33.42,51.464 l -0.06,-0.058 -0.04,-0.035 c 15.08,15.605 31.11,26.715 48.67,34.164 17.56,7.429 36.8,11.269 58.67,11.281 z m -0.98,-414.558 0.16,30.292 c -26.59,0.157 -50.19,5.012 -71.79,14.356 -21.57,9.394 -41.3,23.34 -59.69,42.734 -18.24,19.258 -31.47,39.973 -40.36,62.657 -8.87,22.707 -13.43,47.531 -13.44,75.23 h -30.29 l 30.29,-0.316 c 0.29,28.074 5.12,53.101 14.21,75.808 9.12,22.703 22.5,43.223 40.83,62.16 18.36,18.907 38.03,32.5 59.55,41.606 21.52,9.078 45.04,13.742 71.51,13.754 h 0.99 -0.11 -0.06 c 26.22,-0.16 49.49,-5.004 70.82,-14.336 21.32,-9.36 40.86,-23.289 59.11,-42.668 l -0.01,0.008 c 18.09,-19.266 31.22,-39.973 40.05,-62.684 8.8,-22.715 13.34,-47.57 13.35,-75.305 h 30.3 l -30.3,0.329 c -0.3,-27.754 -5.09,-52.54 -14.1,-75.098 -9.03,-22.547 -22.33,-43.02 -40.54,-61.973 l -0.07,-0.09 -0.08,-0.078 c -18.24,-19.226 -37.73,-32.996 -58.94,-42.207 -21.23,-9.179 -44.35,-13.887 -70.41,-13.887 h -0.98 0.08 0.08 l -0.16,-30.292 v -30.282 h 0.98 c 33.43,-0.027 65.27,6.199 94.48,18.875 29.23,12.649 55.67,31.653 78.84,56.145 l -0.1,-0.11 -0.05,-0.066 c 23.2,24.102 41.12,51.453 53.11,81.473 12.02,30.011 18.08,62.57 18.44,96.941 v 0.176 0.144 c 0.01,34.379 -5.72,67.036 -17.46,97.223 -11.7,30.199 -29.38,57.797 -52.38,82.246 l -0.01,0.004 c -23.16,24.652 -49.61,43.828 -78.91,56.656 -29.28,12.852 -61.21,19.262 -94.8,19.43 h -0.07 -1.09 c -33.66,0.02 -65.68,-6.086 -95.1,-18.531 -29.42,-12.418 -56.08,-31.114 -79.45,-55.25 -23.41,-24.125 -41.48,-51.582 -53.56,-81.785 -12.11,-30.204 -18.22,-63.016 -18.57,-97.696 v -0.215 -0.109 c -0.02,-34.41 5.78,-67.094 17.61,-97.301 11.81,-30.222 29.63,-57.82 52.8,-82.254 23.34,-24.66 50.02,-43.816 79.55,-56.621 29.51,-12.832 61.7,-19.218 95.58,-19.375 h 0.07 0.09 v 30.282"
         style="fill:#000000;fill-opacity:1;fill-rule:nonzero;stroke:none"
         id="path16" /><path
         d="m 548.789,564.504 24.109,-18.32 0.754,0.988 0.086,0.125 200.039,267.84 h -94.109 c -3.574,0 -7.363,-0.371 -11.25,-1.317 -5.813,-1.371 -11.824,-4.179 -16.797,-8.187 -5.019,-3.981 -8.855,-8.969 -11.492,-13.926 l 26.726,-14.254 -24.25,18.152 -138.015,-184.363 24.238,-18.144 -23.699,18.847 -0.219,-0.273 23.703,-18.848 23.985,18.496 -0.078,0.106 -137.891,184.179 -24.246,-18.152 26.707,14.277 c -3.445,6.583 -9.277,13.258 -16.746,17.497 -3.696,2.14 -7.649,3.668 -11.528,4.593 -3.882,0.946 -7.671,1.317 -11.25,1.317 h -94.109 l 200.027,-267.84 0.762,-1.016 24.199,18.223 -24.199,18.223 -0.738,-0.985 -0.024,-0.031 -200.027,-267.84 h 94.109 c 3.579,0 7.368,0.383 11.25,1.317 5.813,1.378 11.829,4.191 16.797,8.195 5.012,3.984 8.852,8.953 11.477,13.894 l -26.707,14.278 24.246,-18.145 137.891,184.18 0.078,0.098 -23.985,18.496 -23.703,-18.836 0.219,-0.285 23.699,18.859 -24.238,-18.156 138.015,-184.356 24.25,18.145 -26.726,-14.246 c 3.445,-6.614 9.297,-13.293 16.766,-17.532 3.691,-2.129 7.656,-3.66 11.523,-4.589 3.887,-0.934 7.676,-1.317 11.25,-1.317 h 94.109 l -200.054,267.883 -0.825,1.082 -24.109,-18.332 24.109,-18.32 -24.109,18.32 -24.121,-18.32 0.754,-0.985 -0.078,0.098 163.75,-219.258 24.265,18.113 v 30.293 h -33.691 v -12.754 l 2.988,12.375 c -1.328,0.321 -2.375,0.379 -2.988,0.379 v -12.754 l 2.988,12.375 -4.082,-16.894 10.821,13.562 c -2.09,1.692 -4.747,2.871 -6.739,3.332 l -4.082,-16.894 10.821,13.562 -9.93,-12.449 14.109,7.52 c -0.652,1.269 -2.058,3.25 -4.179,4.929 l -9.93,-12.449 14.109,7.52 -1.094,2.05 -139.667,186.559 -0.489,0.625 -24.082,30.274 -23.957,-31.075 -139.527,-186.363 -1.086,-2.031 14.59,-7.801 -8.196,14.207 c -3.203,-1.789 -5.586,-4.758 -6.394,-6.406 l 14.59,-7.801 -8.196,14.207 8.508,-14.758 -4.004,16.574 c -1.328,-0.312 -2.949,-0.918 -4.504,-1.816 l 8.508,-14.758 -4.004,16.574 2.996,-12.394 v 12.773 c -0.613,0 -1.66,-0.058 -2.996,-0.379 l 2.996,-12.394 v 12.773 h -33.687 v -30.293 l 24.266,-18.113 163.769,219.297 0.715,0.945 13.726,18.223 -14.46,19.211 -163.75,219.258 -24.266,-18.121 v -30.289 h 33.687 v 12.769 l -2.996,-12.379 c 1.336,-0.324 2.383,-0.39 2.996,-0.39 v 12.769 l -2.996,-12.379 4.09,16.895 -10.816,-13.559 c 2.078,-1.695 4.734,-2.879 6.726,-3.336 l 4.09,16.895 -10.816,-13.559 9.89,12.402 -14.062,-7.515 c 0.652,-1.242 2.051,-3.215 4.172,-4.887 l 9.89,12.402 -14.062,-7.515 1.086,-2.024 139.527,-186.367 0.344,-0.457 23.613,-30.625 24.571,30.891 139.667,186.566 1.094,2.047 -14.621,7.797 8.203,-14.238 c 3.203,1.781 5.598,4.765 6.418,6.441 l -14.621,7.797 8.203,-14.238 -8.496,14.746 3.996,-16.559 c 1.328,0.313 2.957,0.91 4.5,1.813 l -8.496,14.746 3.996,-16.559 -2.988,12.375 v -12.765 c 0.613,0 1.66,0.066 2.988,0.39 l -2.988,12.375 v -12.765 h 33.691 v 30.289 l -24.265,18.121 -163.742,-219.25 -0.684,-0.887 -13.926,-18.332 13.926,-18.32 24.121,18.32"
         style="fill:#000000;fill-opacity:1;fill-rule:nonzero;stroke:none"
         id="path18" /></g></g></svg>
